#!OML:ASF G:\JayActor3\Patient Classification 1\Patient 1\Session 5\male.ASF
:FULLY-SPECIFIED
:DEGREES
615
root 16.3788 16.6221 -5.08647 -358.661 85.7611 -356.018
lowerback -0.211395 -0.814776 -1.45701
upperback 1.52063 -1.04382 -0.98241
thorax 1.68387 -0.529053 -0.207487
lowerneck -7.60146 0.478093 2.62552
upperneck 13.2487 0.258882 1.07636
head 5.24202 0.371757 -0.0743125
rclavicle 1.82012e-015 -1.27222e-014
rhumerus -33.6283 -6.13902 -86.1805
rradius 27.1908
rwrist 2.68816
rhand -18.2577 -7.19175
rfingers 7.12502
rthumb 8.02159 -37.0195
lclavicle 1.82012e-015 -1.27222e-014
lhumerus -32.2625 7.21199 82.4632
lradius 20.6781
lwrist 13.3432
lhand -17.2956 12.8261
lfingers 7.12502
lthumb 8.95014 42.6163
rfemur -15.4849 4.47241 20.7036
rtibia 72.5296
rfoot -12.6022 -9.12862
rtoes -12.6621
lfemur 0.984073 13.1542 -23.5618
ltibia 15.208
lfoot -14.4471 -2.08203
ltoes 3.82829
616
root 16.3179 16.6307 -5.08013 -358.586 85.7643 -355.942
lowerback -0.307996 -0.789572 -1.42006
upperback 1.50233 -1.00855 -1.01134
thorax 1.71789 -0.51086 -0.258492
lowerneck -7.59064 0.466589 2.61493
upperneck 13.2813 0.244817 1.08137
head 5.25016 0.365509 -0.0719051
rclavicle -1.5735e-014 -1.23246e-014
rhumerus -33.6273 -6.28589 -86.1265
rradius 26.983
rwrist 2.82315
rhand -18.2591 -7.17277
rfingers 7.12502
rthumb 8.02024 -37.0006
lclavicle -1.5735e-014 -1.23246e-014
lhumerus -32.3198 7.28117 82.3538
lradius 20.6303
lwrist 13.2873
lhand -17.3222 12.8558
lfingers 7.12502
lthumb 8.92445 42.647
rfemur -14.4951 4.37855 20.7362
rtibia 72.337
rfoot -11.6392 -8.97352
rtoes -12.5708
lfemur 0.883716 13.2935 -23.5324
ltibia 14.9707
lfoot -14.2456 -2.34513
ltoes 3.69918
617
root 16.2567 16.6388 -5.07383 -358.698 85.7749 -356.053
lowerback -0.393653 -0.765317 -1.36402
upperback 1.48264 -0.975272 -1.03421
thorax 1.7442 -0.493428 -0.31375
lowerneck -7.58551 0.454411 2.60405
upperneck 13.3227 0.230874 1.07721
head 5.26199 0.358847 -0.0722711
rclavicle -1.3623e-014 3.97569e-016
rhumerus -33.6265 -6.42007 -86.0718
rradius 26.7864
rwrist 2.9557
rhand -18.2602 -7.15734
rfingers 7.12502
rthumb 8.01917 -36.9852
lclavicle -1.3623e-014 3.97569e-016
lhumerus -32.3686 7.34839 82.2541
lradius 20.5798
lwrist 13.239
lhand -17.3398 12.8792
lfingers 7.12502
lthumb 8.90748 42.6712
rfemur -13.4883 4.27552 20.7787
rtibia 72.0189
rfoot -10.7028 -8.83913
rtoes -12.2972
lfemur 0.752509 13.3727 -23.5003
ltibia 14.7887
lfoot -14.0542 -2.54581
ltoes 3.6172
618
root 16.1952 16.6462 -5.06747 -358.949 85.7959 -356.3
lowerback -0.468065 -0.741939 -1.29412
upperback 1.4624 -0.943799 -1.05242
thorax 1.76358 -0.476726 -0.371811
lowerneck -7.58228 0.440152 2.59197
upperneck 13.3711 0.21507 1.06679
head 5.27631 0.350929 -0.0744982
rclavicle 1.41545e-014 -3.57812e-015
rhumerus -33.6341 -6.55244 -86.0151
rradius 26.6083
rwrist 3.08841
rhand -18.2635 -7.14485
rfingers 7.12502
rthumb 8.016 -36.9728
lclavicle 1.41545e-014 -3.57812e-015
lhumerus -32.4082 7.42096 82.1602
lradius 20.523
lwrist 13.1855
lhand -17.3451 12.889
lfingers 7.12502
lthumb 8.90229 42.6812
rfemur -12.4623 4.15885 20.827
rtibia 71.5764
rfoot -9.87649 -8.72492
rtoes -11.9581
lfemur 0.593809 13.4055 -23.4657
ltibia 14.6615
lfoot -13.8731 -2.7083
ltoes 3.58185
619
root 16.1334 16.6527 -5.06109 -359.274 85.8264 -356.616
lowerback -0.533267 -0.720153 -1.21468
upperback 1.44261 -0.914921 -1.06766
thorax 1.77825 -0.461201 -0.43204
lowerneck -7.58161 0.425525 2.57509
upperneck 13.4239 0.199492 1.05495
head 5.29241 0.342866 -0.0763539
rclavicle 8.52969e-015 7.95139e-016
rhumerus -33.6464 -6.67845 -85.9585
rradius 26.4497
rwrist 3.2177
rhand -18.2662 -7.13492
rfingers 7.12502
rthumb 8.01339 -36.963
lclavicle 8.52969e-015 7.95139e-016
lhumerus -32.441 7.48934 82.0771
lradius 20.4653
lwrist 13.1481
lhand -17.3447 12.8609
lfingers 7.12502
lthumb 8.9027 42.6531
rfemur -11.4192 4.03128 20.8741
rtibia 71.0103
rfoot -9.20982 -8.61998
rtoes -11.6191
lfemur 0.412002 13.4083 -23.431
ltibia 14.5824
lfoot -13.7004 -2.85372
ltoes 3.61673
620
root 16.0713 16.6584 -5.05473 -359.717 85.8637 -357.05
lowerback -0.59375 -0.698955 -1.12269
upperback 1.42509 -0.887263 -1.07865
thorax 1.79256 -0.446157 -0.494886
lowerneck -7.5934 0.411511 2.55705
upperneck 13.485 0.184748 1.04037
head 5.31321 0.335102 -0.0787831
rclavicle 1.02871e-014 6.75868e-015
rhumerus -33.6594 -6.79434 -85.9028
rradius 26.3155
rwrist 3.33323
rhand -18.2702 -7.12866
rfingers 7.12502
rthumb 8.0096 -36.9569
lclavicle 1.02871e-014 6.75868e-015
lhumerus -32.4629 7.55715 82.0047
lradius 20.4098
lwrist 13.1185
lhand -17.3385 12.8259
lfingers 7.12502
lthumb 8.90874 42.6178
rfemur -10.3655 3.90007 20.9247
rtibia 70.3197
rfoot -8.70742 -8.52297
rtoes -11.4059
lfemur 0.206061 13.4016 -23.3906
ltibia 14.5466
lfoot -13.5341 -3.00167
ltoes 3.71154
